<svg version="1" xmlns="http://www.w3.org/2000/svg" width="933.333" height="933.333" viewBox="0 0 700.000000 700.000000"><path d="M329.8.5c-.1.1-4.1.5-8.8.9-17.8 1.2-38.8 4.7-58.1 9.6-65 16.6-124.1 52.1-170.8 102.6-9.4 10.3-10.1 11.1-18.3 21.6C32.4 188.3 7 253.3 1.2 321c-.9 11-.8 50.3.1 60 .9 8.1 2.5 20.9 3.3 25 .2 1.4.7 4.1 1 6 .3 1.9.7 4.2.9 5 .2.8.7 3 1 4.8.3 1.8 2.1 9.2 3.9 16.5C34.9 529.4 95.5 608.1 178 654.6c25.4 14.4 46.1 23 78.5 32.7 11.1 3.3 35.4 8.3 45.8 9.3 3.4.3 6.5.8 6.8 1 1.5.9 23.4 1.9 41.4 1.9 18.3 0 33.5-.8 42.5-2.1 14.4-2.1 29.5-4.8 34.5-6.1 3.3-.8 6.7-1.6 7.5-1.8 10.9-2.2 38.8-11.7 55-18.8 45.9-19.9 90.5-52.4 122.3-89.2 3.3-3.9 6.3-7.2 6.7-7.5.3-.3 4.4-5.5 9-11.5 34.1-44.8 56.2-95 66.4-150.6 3.9-21.2 5.1-34.9 5.1-60.9 0-24.2-1.4-43.2-3.9-56.7-.2-1-1.1-5.9-2.1-10.8-12.8-68.7-48.1-134.1-99-183.6-15.9-15.5-39.7-35-49.6-40.5-1-.6-2.7-1.7-3.6-2.5-1-.8-2.9-2.1-4.3-2.9-1.4-.8-6.1-3.6-10.5-6.2-24.5-14.8-56.5-28-88-36.3-17.9-4.8-26.2-6.3-55.5-10.1-4.7-.6-52.6-1.5-53.2-.9zM381 36.4c41.1 5.4 63.9 11.4 96.5 25.7 70 30.6 128.4 88.8 160.3 159.9 8.4 18.7 17.4 46.6 20.7 64.5 5 26.7 6 36.9 6 63.5 0 18.4-.7 31.4-2 39.6-3.3 21.2-4.7 28.1-7.9 40.4-6.9 26.1-16.1 49.1-29.2 72.6-5.2 9.4-15.9 26.5-18.6 29.9-.4.5-3.3 4.4-6.4 8.5-17 22.6-42.3 47.2-65.9 64.2-33.4 24-70.4 41.1-109.6 50.6-6.8 1.7-14 3.3-15.9 3.6-1.9.3-4.5.8-5.7 1-1.1.3-4.3.7-7 1.1-2.6.4-5.9.9-7.3 1.1-12.5 1.9-51.7 2.6-67.3 1.1-10.7-1-27.9-3.5-35.5-5.2-3.4-.8-7.4-1.7-9-2-1.5-.2-4.3-1-6.2-1.5-1.9-.6-4.4-1.3-5.5-1.5-4.5-1-23.7-7.5-33.5-11.5-19.6-7.8-44-21-62.5-33.9-4.4-3-8.2-5.8-8.5-6.1-.3-.3-2.5-2.1-5-4-13-9.9-36.9-32.7-45.5-43.5-2.2-2.7-5-6.1-6.3-7.5-8.7-9.6-26.5-37.5-36.1-56.7C57.8 469.7 46.2 438 43.7 423c-.3-1.4-1-4.3-1.5-6.5-1.9-6.9-4.7-25.2-5.9-38-1-10.2-1-46.4 0-57.5.7-8 1-10.2 2.2-17.5.3-1.7 1-5.9 1.5-9.5 1.6-9.6 7.6-33.2 11.1-43.5 16.3-47.6 41.8-88.8 76.3-123 43.5-43.3 95.2-71.8 154.1-84.9 6.1-1.3 12.8-2.7 15-3 10.2-1.7 18.3-2.7 25.3-3.2 4.3-.3 7.9-.8 8.1-1 .6-.6 45.9.4 51.1 1z"/><path d="M315.5 270c-5 3.9-10.3 8.1-12 9.4-34.9 27.6-65 50.4-65.6 50-.5-.3-.9-1.2-.9-2 0-2.3-5.5-13.8-9.4-19.7-6.5-9.8-16.9-19.6-26.7-25-5.1-2.7-16.5-7.1-22-8.3-1.9-.4-20.2-.9-40.6-1.1l-37.3-.4v154.2l38.3-.3 38.2-.4 8-2.7c15.4-5.2 27-12.8 36.6-24.1 5.4-6.4 13.6-20.4 14.2-24.5.2-.9.8-2.5 1.4-3.5 1-1.8 1.3-1.7 5.9 2 2.7 2.1 5.1 4.1 5.4 4.4.3.3 11.8 9.3 25.5 20 13.8 10.6 27.5 21.3 30.5 23.7 12.2 9.8 19.6 15.3 20.3 15.3.4 0 6.3-4.4 13.1-9.8 6.7-5.3 13.8-10.8 15.6-12.2 1.8-1.4 12.1-9.4 22.9-17.9 30.1-23.6 35.1-27.3 35.2-25.9 0 .7.2 13.4.2 28.3l.2 27h99v-30l-31.5-.1c-17.3-.1-31.8-.2-32.1-.3-.3 0-.5-27.2-.4-60.4 0-33.1-.1-60.8-.3-61.5-.3-.9-4.7-1.2-17.6-1.2h-17.3l.1 28.7.1 28.8-4 3c-2.2 1.6-4.2 3.2-4.5 3.5-.5.5-11.5 9.2-25 19.6-3.6 2.8-16.4 12.8-28.4 22.2l-21.9 17.1-6.6-5.1c-3.6-2.9-7.8-6.2-9.3-7.4l-2.7-2.2 17.7-13.8c9.7-7.6 18.4-14.4 19.2-15.1.8-.6 11.4-8.9 23.5-18.3 12.1-9.5 22.2-17.4 22.5-17.7.3-.2-.2-1-1.1-1.6-1.7-1.3-4.4-3.4-15.4-12.1-3.8-3.1-7.3-5.6-7.7-5.6-.4 0-8.1 5.7-17 12.7-9 7-23.9 18.7-33.3 26.1-9.3 7.3-17.7 13.8-18.5 14.5-6.2 5.1-14 10.7-14.9 10.7-1.3 0-18.1-13-18.1-13.9.1-.3 7.6-6.4 16.8-13.6 49.5-38.4 65.2-50.8 65.2-51.6 0-.4-1.5-2-3.2-3.3-1.8-1.4-7.1-5.5-11.6-9.1-4.6-3.6-8.7-6.5-9-6.5-.4 0-4.8 3.2-9.7 7zM171 304.4c10.5 1.9 24.4 13.1 29.2 23.6 4.4 9.6 6.1 22.1 4.3 31.3-2.5 13-11.5 25.9-22 31.7-8.1 4.5-13 5.4-32 5.4l-14 .1-.3-45.5c-.1-25 0-46 .2-46.6.4-1.1 28.2-1.1 34.6 0zM523.7 273.7c-.2.5-.3 35-.3 76.8l.1 76 49.8.3 49.7.2v-30.5h-31.9c-31.3 0-32 0-32.3-2-.2-1.1-.3-28.9-.3-61.8l.1-59.7h-17.3c-9.4 0-17.3.3-17.6.7z"/></svg>